<svg class="tomobilesv" width="215px" height="54px" viewBox="0 0 215 54" version="1.1" xmlns="http://www.w3.org/2000/svg" xmlns:xlink="http://www.w3.org/1999/xlink">
    <!-- Generator: Sketch 48.2 (47327) - http://www.bohemiancoding.com/sketch -->
    <desc>Created with Sketch.</desc>
    <defs>
        <rect  id="path-1" x="0" y="0" width="215" height="54" rx="10"></rect>
    </defs>
    <g id="vetsmart" stroke="none" stroke-width="1" fill="none" fill-rule="evenodd">
        <g  id="PDP_first-visit_1366px-" transform="translate(-1056.000000, -410.000000)">
            <g id="quantity" transform="translate(1056.000000, 410.000000)">
                <g id="Rectangle-3" >
                    <use  fill="#FFFFFF" fill-rule="evenodd" xlink:href="#path-1"></use>
                    <rect   stroke="#179FFE" stroke-width="2" x="1" y="1" width="213" height="52" rx="10"></rect>
                </g>
                <text id="1" font-family=".AppleSystemUIFont" font-size="16" font-weight="normal" letter-spacing="0.672000051" fill="#6D858D">
                    <tspan x="122" y="33" id="number" value="0">1</tspan>
                </text>
                <text id="Qty:" font-family="Helvetica" font-size="16" font-weight="normal" letter-spacing="0.960000098" fill="#6D858D">
                    <tspan x="82" y="33">Qty:</tspan>
                </text>
                <path onclick="decreaseValue()"  d="M32.9881258,22 L32.9881258,28.9881258 C32.9881258,30.0926953 32.0926953,30.9881258 30.9881258,30.9881258 L24,30.9881258 C22.8954305,30.9881258 22,30.0926953 22,28.9881258 C22,28.4576929 22.2107137,27.948985 22.5857864,27.5739123 L29.5739123,20.5857864 C30.3549609,19.8047379 31.6212908,19.8047379 32.4023394,20.5857864 C32.7774122,20.9608592 32.9881258,21.469567 32.9881258,22 Z" id="arrow-down" fill="#179FFE" transform="translate(27.494063, 25.494063) rotate(-315.000000) translate(-27.494063, -25.494063) "></path>
                <path onclick="increaseValue()" d="M192.988126,27 L192.988126,33.9881258 C192.988126,35.0926953 192.092695,35.9881258 190.988126,35.9881258 L184,35.9881258 C182.895431,35.9881258 182,35.0926953 182,33.9881258 C182,33.4576929 182.210714,32.948985 182.585786,32.5739123 L189.573912,25.5857864 C190.354961,24.8047379 191.621291,24.8047379 192.402339,25.5857864 C192.777412,25.9608592 192.988126,26.469567 192.988126,27 Z" id="arrow-up" fill="#179FFE" transform="translate(187.494063, 30.494063) scale(1, -1) rotate(-315.000000) translate(-187.494063, -30.494063) "></path>
                <path d="M55.5,1 L55.5,52.5" id="Line" stroke="#179FFE" stroke-width="2" stroke-linecap="square"></path>
                <path d="M159.5,1 L159.5,52.5" id="Line-Copy" stroke="#179FFE" stroke-width="2" stroke-linecap="square"></path>
            </g>
        </g>
    </g>
</svg>