<svg width="35px" height="29px" viewBox="0 0 35 29" version="1.1" xmlns="http://www.w3.org/2000/svg" xmlns:xlink="http://www.w3.org/1999/xlink">
    <!-- Generator: Sketch 48.2 (47327) - http://www.bohemiancoding.com/sketch -->
    <desc>Created with Sketch.</desc>
    <defs></defs>
    <g id="vetsmart" stroke="none" stroke-width="1" fill="none" fill-rule="evenodd">
        <g id="landing_first-visit_1366px" transform="translate(-1309.000000, -18.000000)">
            <g id="Nav">
                <g id="shopping-cart" transform="translate(1310.000000, 17.000000)">
                    <path d="M5.10041333,4.36848263 L0.666666667,4.36842105 C0.29948,4.36842105 0,4.06106 0,3.68421053 C0,3.30736105 0.299466667,3 0.666666667,3 L5.099,3 C5.8998,3 6.56645333,3.61606316 6.69926667,4.40317895 L9.29953333,20.2081 C9.29953333,20.3444084 9.43364667,20.4473068 9.56646,20.4473068 L22.2657933,20.4473068 C22.3999067,20.4473068 22.4988667,20.3444084 22.53272,20.2081 L23.0665867,17.3683526 L12.0002533,17.3683526 C11.6330667,17.3683526 11.3335867,17.0609916 11.3335867,16.6841421 C11.3335867,16.3072926 11.6330533,15.9999316 12.0002533,15.9999316 L23.3335867,15.9999316 L23.8335867,13.2630895 L11.3335867,13.2630895 C10.9664,13.2630895 10.66692,12.9557284 10.66692,12.5788789 C10.66692,12.2020295 10.9663867,11.8946684 11.3335867,11.8946684 L24.0992533,11.8946684 L24.5328533,9.49993158 C24.5328533,9.39703316 24.5003,9.29546895 24.4664467,9.26072474 C24.4338933,9.22598053 24.3661867,9.15782632 24.2333733,9.15782632 L7.66704,9.15782632 C7.29985333,9.15782632 7.00037333,8.85046526 7.00037333,8.47361579 C7.00037333,8.09676632 7.29984,7.78940526 7.66704,7.78940526 L24.2333733,7.78940526 C24.7333733,7.78940526 25.2008267,7.99518158 25.5016067,8.37071053 C25.8010867,8.74757368 25.9352,9.26073158 25.83494,9.73913158 L23.8688067,20.4473684 C23.70214,21.2344842 23.0354733,21.8157895 22.26854,21.8157895 L9.56787333,21.8157895 C8.76707333,21.8157895 8.10042,21.1997263 7.96760667,20.4126105 L5.36734,4.60768947 C5.36734,4.47138105 5.23322667,4.36848263 5.10041333,4.36848263 Z M11.2007467,28.7260353 C9.89994667,28.7260353 8.83354667,27.6315721 8.83354667,26.2965405 C8.83354667,24.9615089 9.90128,23.8670458 11.2007467,23.8670458 C12.5015467,23.8670458 13.5679467,24.9628774 13.5679467,26.2965405 C13.5679467,27.6315721 12.5002133,28.7260353 11.2007467,28.7260353 Z M22.26708,26.2981142 C22.26708,27.6318116 21.2006467,28.7262727 19.89988,28.7276089 C18.59908,28.7276089 17.53268,27.6317774 17.53268,26.2981142 C17.53268,24.9630826 18.6004133,23.8686195 19.89988,23.8686195 C21.20068,23.8686195 22.26708,24.9644511 22.26708,26.2981142 Z" id="cart_icon" stroke="#179FFE" stroke-width="0.6" fill="#179FFE" fill-rule="nonzero"></path>
                    <circle id="cart_badge" fill="#FFA028" cx="26.5" cy="8.5" r="7.5"></circle>
                    <text id="2" font-family=".AppleSystemUIFont" font-size="12" font-weight="normal" letter-spacing="0.720000088" fill="#FFFFFF">
                        <tspan x="23" y="12">2</tspan>
                    </text>
                </g>
            </g>
        </g>
    </g>
</svg>