<svg width="137px" height="28px" viewBox="0 0 137 28" version="1.1" xmlns="http://www.w3.org/2000/svg" xmlns:xlink="http://www.w3.org/1999/xlink">
    <!-- Generator: Sketch 48.2 (47327) - http://www.bohemiancoding.com/sketch -->
    <desc>Created with Sketch.</desc>
    <defs></defs>
    <g id="vetsmart" stroke="none" stroke-width="1" fill="none" fill-rule="evenodd">
        <g id="landing_first-visit_1366px" transform="translate(-83.000000, -17.000000)" fill="#0670BB">
            <g id="Nav">
                <g id="Vetsmart" transform="translate(83.000000, 17.000000)">
                    <g id="Group-2" transform="translate(16.000000, 14.000000) scale(-1, 1) translate(-16.000000, -14.000000) ">
                        <path d="M31.6293689,5.85094066 C30.2875022,5.29214496 29.3157689,4.33512704 28.1701689,3.36740422 C27.5995022,2.8846133 26.5136356,2.30226683 25.4544356,2.03464436 C25.9333689,1.10652967 26.1744356,0.169851055 26.1744356,0.169851055 C26.1744356,0.169851055 23.8075022,-0.212313819 23.1568356,0.169851055 C22.5307022,0.537029072 21.7851022,2.17809 21.4032356,3.10299323 C21.0565689,3.56009239 20.7845689,4.12745201 20.4379022,4.761182 C19.4672356,6.53498367 18.7867022,9.10844126 18.3141689,11.8488953 C19.0811022,10.7345153 20.2960356,9.41246037 21.7520356,8.74982716 L21.7307022,10.7002597 C21.7307022,10.7002597 22.6320356,10.9903624 23.1888356,11.4603074 C24.0187022,12.1614783 24.7227022,13.1816551 25.6933689,13.5873708 C25.9867022,15.9092632 23.4619022,17.0686037 21.6891022,17.1927806 L21.6453689,17.9164317 C21.6005689,18.6572107 21.8587022,19.3883552 22.3739022,19.9193182 C24.3387022,21.9457555 25.7413689,24.4078821 25.1419022,27.1922262 C28.8816356,23.1885942 28.5381689,15.8407519 25.5621689,9.75394663 L26.0987022,8.79478773 C27.3232356,8.70807806 28.8069689,9.33966706 29.9344356,8.91254162 C31.0608356,8.48755715 31.8320356,7.45453445 31.6293689,5.85094066" id="logo"></path>
                        <path d="M19.7970254,10.3339387 C19.8879665,10.3339387 20.1360249,10.3339387 20.3171069,10.6093085 C20.4530575,10.7932056 20.4751283,10.9995203 20.407153,11.1834128 L18.5312003,18.4171271 C18.509143,18.5776926 18.3961357,18.7391675 18.2601852,18.830666 C18.1471869,18.898842 18.0121222,18.9454868 17.8761717,18.9221644 L5.85337759,18.9221644 L6.14735399,20.7135536 L17.4921583,20.7144506 C17.8532105,20.7144506 18.1471869,21.01225 18.1471869,21.3800441 C18.1471869,21.7469198 17.8761717,22.0456377 17.4921583,22.0456377 L5.60428412,22.0456377 C5.28825045,22.0456377 5.01723078,21.838409 4.94925552,21.517278 L4.47341964,18.4853183 C4.45134881,18.4395691 4.42839659,18.3704975 4.42839659,18.3014258 L2.98237983,9.46021941 L2.82130333,8.79462583 L2.23883805,11.8034589 L0.745374898,9.46021941 C0.384322701,9.46021941 0.090346299,9.16242002 0.090346299,8.79462583 C0.090346299,8.42775021 0.361361444,8.12903226 0.745374898,8.12903226 L3.52626329,8.12992924 C3.84229696,8.12992924 4.11331663,8.35957096 4.18129189,8.68070195 L4.45230704,10.3339387 L19.7970254,10.3339387 Z M7.39021788,22.6420921 C8.61023802,22.6420921 9.58220428,23.6297353 9.58220428,24.8694332 C9.58220428,26.1091311 8.61023802,27.0967742 7.39021788,27.0967742 C6.17019773,27.0967742 5.19823148,26.1091311 5.19823148,24.8694332 C5.19823148,23.6297353 6.192255,22.6420921 7.39021788,22.6420921 Z M14.5771363,22.6420921 C15.7971565,22.6420921 16.7691228,23.6297353 16.7691228,24.8694332 C16.7691228,26.1091311 15.7971565,27.0967742 14.5771363,27.0967742 C13.3571162,27.0967742 12.3851499,26.1091311 12.3851499,24.8694332 C12.3851499,23.6297353 13.3791735,22.6420921 14.5771363,22.6420921 Z" id="Combined-Shape" fill-rule="nonzero" transform="translate(10.267395, 17.612903) scale(-1, 1) translate(-10.267395, -17.612903) "></path>
                    </g>
                    <text font-family=".AppleSystemUIFont" font-size="19" font-weight="normal">
                        <tspan x="39" y="23">Vetsmart</tspan>
                    </text>
                </g>
            </g>
        </g>
    </g>
    
    
</svg>







