<svg width="600px" height="318px" viewBox="0 0 566 318" version="1.1" xmlns="http://www.w3.org/2000/svg" xmlns:xlink="http://www.w3.org/1999/xlink">
    <!-- Generator: Sketch 48.2 (47327) - http://www.bohemiancoding.com/sketch -->
    <desc>Created with Sketch.</desc>
    <defs>
        <path d="M158.851622,102 L317.255213,102 C328.919467,102 338.375213,111.455746 338.375213,123.12 C338.375213,123.954657 338.325735,124.788581 338.227039,125.617382 L334.377829,157.941211 L340.260039,323.007858 C340.675436,334.664713 331.562433,344.451207 319.905578,344.866603 C319.654964,344.875534 319.40421,344.88 319.153436,344.88 L156.598295,344.88 C144.934041,344.88 135.478295,335.424254 135.478295,323.76 C135.478295,323.465957 135.484436,323.171945 135.496713,322.878158 L142.389479,157.941211 L137.934603,126.041076 C136.321337,114.488925 144.378395,103.816246 155.930546,102.20298 C156.89837,102.067823 157.874407,102 158.851622,102 Z" id="path-1"></path>
        <path d="M24.8003916,0 L255.615025,3.55271368e-15 C267.279279,1.410025e-15 276.735025,9.45574608 276.735025,21.12 C276.735025,22.3843522 276.621489,23.6461505 276.395786,24.8901941 L267.121796,76.0070801 L279.702737,307.735042 C280.33508,319.382143 271.405854,329.336599 259.758753,329.968942 C259.377451,329.989644 258.995658,330 258.613795,330 L21.4209596,330 C9.75670572,330 0.300959633,320.544254 0.300959633,308.88 C0.300959633,308.454723 0.313804851,308.029543 0.339477716,307.605041 L14.3459826,76.0070801 L4.09892319,25.3037311 C1.78831234,13.8706257 9.18355525,2.72914244 20.6166606,0.418531586 C21.9938442,0.140205139 23.3953647,3.81081293e-15 24.8003916,3.55271368e-15 Z" id="path-2"></path>
    </defs>
    <g id="vetsmart" stroke="none" stroke-width="1" fill="none" fill-rule="evenodd">
        <g id="landing_first-visit_1366px" transform="translate(-741.000000, -217.000000)">
            <g id="bb">
                <g id="Shape-+-products-Mask">
                    <g id="illustration_bb_desktop">
                        <g transform="translate(741.000000, 217.000000)">
                            <path d="M566,189.937512 C566,179.457009 557.421304,170.931583 546.875315,170.931583 C536.329327,170.931583 527.750631,179.457009 527.750631,189.937512 C527.750631,198.846542 533.951172,206.320307 542.29336,208.374214 L542.29336,247.722824 C542.29336,260.826462 531.573018,271.480235 518.387504,271.480235 C500.482974,271.480235 485.802229,285.536704 484.957556,303.119723 L484.920202,303.119723 C484.920202,316.82965 473.913627,328.040297 460.217484,328.48567 C447.405539,328.064973 437.10849,317.572148 437.10849,304.740612 L437.10849,248.293001 C453.307098,247.006142 468.372887,240.163532 479.989221,228.60666 C492.938226,215.750415 500.060258,198.650147 500.060258,180.461473 C500.060258,164.7347 494.706303,149.848939 484.907452,137.770988 C485.393028,136.348014 485.716777,134.838436 485.716777,133.254545 C485.716777,125.384823 479.292158,119.000098 471.373263,119.000098 C463.454369,119.000098 457.02975,125.384823 457.02975,133.254545 C457.02975,141.124267 463.454369,147.508992 471.373263,147.508992 C474.087566,147.508992 476.577728,146.717079 478.744236,145.430219 C486.326854,155.502411 490.497948,167.640865 490.497948,180.461314 C490.497948,196.113964 484.359562,210.826138 473.228358,221.900576 C462.084723,232.96266 447.268192,239.06293 431.530171,239.06293 C415.779718,239.06293 400.975618,232.96266 389.831983,221.900576 C378.70078,210.826138 372.562393,196.113964 372.562393,180.461314 C372.562393,168.434045 376.210427,156.976004 382.946459,147.273794 L382.934009,147.273794 C383.705977,147.397532 384.490376,147.508894 385.299701,147.508894 C393.218595,147.508894 399.643214,141.124169 399.643214,133.254447 C399.643214,125.384725 393.218595,119 385.299701,119 C377.380807,119 370.956188,125.384725 370.956188,133.254447 C370.956188,136.842767 372.338233,140.084545 374.542066,142.596495 C367.046465,153.695641 363,166.774571 363,180.459474 C363,198.648782 370.122033,215.750317 383.071038,228.617332 C395.07369,240.545453 410.749556,247.425283 427.532742,248.365759 L427.532742,304.740514 C427.532742,322.533865 441.67704,337.12345 459.369923,337.962878 L461.001003,338 L461.001003,337.962878 C479.055024,337.13384 493.608591,322.693831 494.430952,304.740514 L494.468306,304.740514 C494.468306,291.636876 505.188648,280.983102 518.374161,280.983102 C536.826613,280.983102 551.842359,266.060596 551.842359,247.722725 L551.842359,208.275919 C559.985331,206.085771 565.999088,198.711185 565.999088,189.938048 L566,189.937512 Z M483.03125,141 C483.023438,141.015626 483.007812,141.03125 483,141.046876 C483.015624,141.03125 483.023438,141.015626 483.03125,141 Z M481.078124,143 C481.054688,143.03125 481.03125,143.0625 481,143.09375 C481.03125,143.054686 481.054688,143.03125 481.078124,143 Z M472.5,137 C470.01564,137 468,134.98436 468,132.5 C468,130.01564 470.01564,128 472.5,128 C474.98436,128 477,130.01564 477,132.5 C477,134.98436 474.98436,137 472.5,137 Z M479,143.070312 C479.031252,143.046874 479.054688,143.023436 479.085938,143 C479.0625,143.023436 479.039064,143.046874 479,143.070312 Z M385.5,128 C387.98436,128 390,130.01564 390,132.5 C390,134.98436 387.98436,137 385.5,137 C383.01564,137 381,134.98436 381,132.5 C381,130.01564 383.01564,128 385.5,128 Z M381.25,148.078124 C381.171874,148.046874 381.085936,148.03125 381,148 C381.085936,148.03125 381.171874,148.046874 381.25,148.078124 Z M376.109376,146.09375 C376.070314,146.0625 376.039062,146.03125 376,146 C376.03125,146.03125 376.070314,146.0625 376.109376,146.09375 Z M378.21876,146.117188 C378.148446,146.078126 378.078134,146.039064 378,146 C378.078126,146.046876 378.148438,146.085938 378.21876,146.117188 Z M547,200 C541.492333,200 537,195.507667 537,190 C537,184.492333 541.492333,180 547,180 C552.507667,180 557,184.492333 557,190 C557,195.520667 552.507667,200 547,200 Z" id="Shape" fill="#179FFE" fill-rule="nonzero" transform="translate(464.500000, 228.500000) scale(-1, 1) translate(-464.500000, -228.500000) "></path>
                            <g id="products">
                                <g id="Rectangle-4">
                                    <use fill="#FFFFFF" fill-rule="evenodd" xlink:href="#path-1"></use>
                                    <path stroke="#179FFE" stroke-width="8" d="M158.851622,106 C158.059486,106 157.268304,106.054978 156.48378,106.164537 C147.119537,107.47226 140.588436,116.123599 141.896159,125.487842 L146.401106,157.74652 L139.493225,323.045174 C139.483273,323.283319 139.478295,323.521647 139.478295,323.76 C139.478295,333.215115 147.14318,340.88 156.598295,340.88 L319.153436,340.88 C319.356715,340.88 319.559977,340.876379 319.763127,340.86914 C329.212244,340.532417 336.599299,332.599427 336.262577,323.15031 L330.369365,157.774956 L334.255102,125.144393 C334.335105,124.472562 334.375213,123.796578 334.375213,123.12 C334.375213,113.664885 326.710328,106 317.255213,106 L158.851622,106 Z"></path>
                                </g>
                                <g id="Rectangle-4">
                                    <use fill="#EAF5F6" fill-rule="evenodd" xlink:href="#path-2"></use>
                                    <path stroke="#179FFE" stroke-width="8" d="M24.8003916,4 C23.6614683,4 22.5253873,4.11365114 21.4090339,4.33926424 C12.1412894,6.2122594 6.14666068,15.2436133 8.01965585,24.5113577 L18.370234,75.7269268 L4.33218262,307.846511 C4.31137204,308.190614 4.30095963,308.535268 4.30095963,308.88 C4.30095963,318.335115 11.9658447,326 21.4209596,326 L258.613795,326 C258.923335,326 259.232819,325.991605 259.541905,325.974824 C268.983115,325.462243 276.2212,317.393101 275.708619,307.95189 L263.102222,75.7550522 L272.460036,24.1761421 C272.642992,23.1677129 272.735025,22.1448915 272.735025,21.12 C272.735025,11.6648851 265.07014,4 255.615025,4 L24.8003916,4 Z"></path>
                                </g>
                                <path d="M164.802968,224.04 C160.223995,224.04 156.068627,221.491226 152.047039,219.024302 C148.181687,216.646858 144.182364,214.195006 140.131089,214.195006 C136.079815,214.195006 132.110369,216.647049 128.274513,219.024302 C124.290034,221.491226 120.164543,224.04 115.585379,224.04 C105.104093,224.04 96.8900289,213.211098 96.8900289,199.393649 C96.8900289,179.72503 117.094069,147.195205 140.124048,147.195205 C163.213021,147.195205 183.476053,179.734569 183.476053,199.393649 C183.490921,213.211098 175.276833,224.04 164.802968,224.04 Z M140.130709,206.242847 C146.412097,206.242847 151.608019,209.432678 156.187183,212.242262 C159.413321,214.224769 162.453728,216.087841 164.802588,216.087841 C170.630493,216.087841 175.558856,208.441329 175.558856,199.393649 C175.558856,181.924466 156.558647,155.139732 140.130899,155.139732 C123.762144,155.139732 104.820928,181.917215 104.820928,199.393649 C104.820928,208.441329 109.74929,216.087841 115.584618,216.087841 C117.911403,216.087841 120.921932,214.224655 124.110962,212.257144 C128.667671,209.439928 133.834097,206.242847 140.130328,206.242847 L140.130709,206.242847 Z M160.096875,139.212328 C158.892644,139.212328 157.688452,139.055821 156.521348,138.742811 C152.024013,137.542909 148.322127,134.040201 146.367186,129.151187 C144.538527,124.582703 144.30073,119.164436 145.713034,113.895367 C148.322223,104.139663 155.792979,97.3204197 163.880684,97.3204197 C165.092356,97.3204197 166.29653,97.4769273 167.463633,97.7899367 C176.435848,100.204585 181.282572,111.354015 178.264621,122.636618 C175.648011,132.399763 168.184676,139.211565 160.09697,139.211565 L160.096875,139.212328 Z M163.880589,105.264928 C159.517034,105.264928 154.997434,109.855735 153.369617,115.944823 C152.418122,119.507268 152.5445,123.241043 153.718987,126.177503 C154.321112,127.675516 155.748335,130.298966 158.565711,131.051635 C163.286076,132.32606 168.779436,127.384827 170.600597,120.573025 C172.451559,113.634537 170.080244,106.710931 165.411906,105.458771 C164.913856,105.332075 164.400943,105.265004 163.880589,105.265004 L163.880589,105.264928 Z M193.689018,172.108472 C192.477346,172.108472 191.280594,171.951962 190.113491,171.638955 C181.141275,169.231748 176.294551,158.082317 179.305081,146.792274 C181.91427,137.029129 189.385026,130.217326 197.472732,130.217326 C198.684403,130.217326 199.881155,130.373836 201.048259,130.686843 C210.020474,133.09405 214.867198,144.23604 211.856669,155.533524 C209.24748,165.296669 201.776723,172.108472 193.689018,172.108472 Z M197.472732,138.161071 C193.101755,138.161071 188.589577,142.751879 186.961759,148.848407 C185.110797,155.786894 187.489534,162.7105 192.157872,163.96266 C196.788988,165.207264 202.371598,160.295852 204.192759,153.476609 C206.043721,146.538121 203.664984,139.614515 198.996646,138.362356 C198.506036,138.235657 197.993123,138.161128 197.47277,138.161128 L197.472732,138.161071 Z M120.179005,139.211909 C112.0913,139.211909 104.620543,132.392665 102.018776,122.636961 C100.606396,117.367893 100.836848,111.949626 102.665488,107.388582 C104.620429,102.492128 108.322505,98.9968409 112.81965,97.789517 C113.986715,97.4765057 115.190965,97.32 116.402599,97.32 C124.497726,97.32 131.961061,104.131803 134.57025,113.894947 C135.982629,119.164016 135.752177,124.582283 133.923538,129.150768 C131.961175,134.047222 128.266521,137.542509 123.769376,138.742392 C122.59487,139.055403 121.383217,139.211909 120.179005,139.211909 Z M116.38787,105.264508 C115.867516,105.264508 115.354603,105.331585 114.863994,105.465735 C112.046618,106.225922 110.619375,108.849219 110.017269,110.339867 C108.842763,113.276328 108.716405,117.010103 109.6679,120.579989 C111.29585,126.668885 115.808086,131.259883 120.17145,131.259883 C120.691804,131.259883 121.204717,131.192809 121.695326,131.058656 C124.520124,130.298469 125.939945,127.682614 126.54205,126.184525 C127.716557,123.248064 127.842915,119.514289 126.89142,115.944403 C125.270911,109.862947 120.751234,105.264508 116.38787,105.264508 Z M86.4747768,170.661858 C78.3796496,170.661858 70.9088932,163.842614 68.3071259,154.07947 C66.8947461,148.810401 67.1251981,143.399575 68.9538379,138.83109 C70.908779,133.942077 74.6108549,130.439349 79.1079998,129.232025 C80.2750652,128.919014 81.4718934,128.762508 82.6835268,128.762508 C90.7786541,128.762508 98.2494105,135.581752 100.858599,145.337456 C103.869129,156.628453 99.022519,167.770634 90.0501897,170.184137 C88.8905459,170.504608 87.6862961,170.661114 86.4746626,170.661114 L86.4747768,170.661858 Z M82.683641,136.714458 C82.1632876,136.714458 81.6503748,136.781532 81.1597651,136.915685 C78.342389,137.675871 76.9151469,140.299168 76.3204626,141.789816 C75.1459565,144.726277 75.019598,148.460052 75.9710928,152.022497 C77.7923109,158.841741 83.3229123,163.745636 88.0059793,162.515989 C92.6742029,161.256465 95.0529399,154.332782 93.2020922,147.401736 C91.5741418,141.305398 87.0544845,136.7144 82.6836981,136.7144 L82.683641,136.714458 Z" id="Shape" stroke="#179FFE" stroke-width="2.112" fill="#179FFE" fill-rule="nonzero"></path>
                            </g>
                        </g>
                    </g>
                </g>
            </g>
        </g>
    </g>
</svg>