<svg width="26px" height="22px" viewBox="0 0 26 22" version="1.1" xmlns="http://www.w3.org/2000/svg" xmlns:xlink="http://www.w3.org/1999/xlink">
    <!-- Generator: Sketch 48.2 (47327) - http://www.bohemiancoding.com/sketch -->
    <desc>Created with Sketch.</desc>
    <defs></defs>
    <g id="vetsmart" stroke="none" stroke-width="1" fill="none" fill-rule="evenodd">
        <g id="landing_first-visit_1366px" transform="translate(-29.000000, -22.000000)" fill="#179FFE" fill-rule="nonzero">
            <g id="Nav">
                <path d="M30.8038278,31.5135135 L44.3325359,31.5135135 C45.3242804,31.5135135 46.1363636,32.316573 46.1363636,33.2972973 C46.1363636,34.2780216 45.3242804,35.0810811 44.3325359,35.0810811 L30.8038278,35.0810811 C29.8120833,35.0810811 29,34.2780216 29,33.2972973 C29,32.316573 29.8120833,31.5135135 30.8038278,31.5135135 Z M55,23.7837838 C55,24.7645081 54.1927448,25.5675676 53.2068966,25.5675676 L30.7931034,25.5675676 C29.8072552,25.5675676 29,24.7645081 29,23.7837838 C29,22.8030595 29.8072552,22 30.7931034,22 L53.2068966,22 C54.1927448,22 55,22.8030595 55,23.7837838 Z M35.4343434,40.4324324 C36.4450869,40.4324324 37.2727273,41.2354919 37.2727273,42.2162162 C37.2727273,43.1969405 36.4450869,44 35.4343434,44 L30.8383838,44 C29.8276404,44 29,43.1969405 29,42.2162162 C29,41.2354919 29.8276404,40.4324324 30.8383838,40.4324324 L35.4343434,40.4324324 Z" id="menu"></path>
            </g>
        </g>
    </g>
</svg>